<!DOCTYPE svg PUBLIC "-//W3C//DTD SVG 1.1//EN" "http://www.w3.org/Graphics/SVG/1.1/DTD/svg11.dtd">
<!-- Uploaded to: SVG Repo, www.svgrepo.com, Transformed by: SVG Repo Mixer Tools -->
<svg width="64px" height="64px" viewBox="0 0 24 24" xmlns="http://www.w3.org/2000/svg" fill="#409bfb">
<g id="SVGRepo_bgCarrier" stroke-width="0"/>
<g id="SVGRepo_tracerCarrier" stroke-linecap="round" stroke-linejoin="round"/>
<g id="SVGRepo_iconCarrier"> <path d="M18.15,4.94A2.09,2.09,0,0,0,17,5.2l-8.65,5a2,2,0,0,0-.73,2.74l1.5,2.59a2,2,0,0,0,2.73.74l1.8-1a2.49,2.49,0,0,0,1.16,1V18a2,2,0,0,0,2,2H22V18H16.81V16.27A2.49,2.49,0,0,0,18,12.73l2.53-1.46a2,2,0,0,0,.74-2.74l-1.5-2.59a2,2,0,0,0-1.59-1M6.22,13.17,2,13.87l.75,1.3,2,3.46.75,1.3,2.72-3.3Z"/> <rect width="24" height="24" fill="none"/> </g>
</svg>