<?xml version="1.0" encoding="UTF-8" standalone="no"?>
<!-- Uploaded to: SVG Repo, www.svgrepo.com, Transformed by: SVG Repo Mixer Tools -->

<svg
   fill="#409bfb"
   width="800px"
   height="800px"
   viewBox="-1 0 19 19"
   class="cf-icon-svg"
   version="1.1"
   id="svg1"
   sodipodi:docname="HomeC.svg"
   inkscape:version="1.4.2 (f4327f4, 2025-05-13)"
   xmlns:inkscape="http://www.inkscape.org/namespaces/inkscape"
   xmlns:sodipodi="http://sodipodi.sourceforge.net/DTD/sodipodi-0.dtd"
   xmlns="http://www.w3.org/2000/svg"
   xmlns:svg="http://www.w3.org/2000/svg">
  <defs
     id="defs1" />
  <sodipodi:namedview
     id="namedview1"
     pagecolor="#505050"
     bordercolor="#eeeeee"
     borderopacity="1"
     inkscape:showpageshadow="0"
     inkscape:pageopacity="0"
     inkscape:pagecheckerboard="0"
     inkscape:deskcolor="#505050"
     inkscape:zoom="0.96625"
     inkscape:cx="400"
     inkscape:cy="400"
     inkscape:window-width="1920"
     inkscape:window-height="991"
     inkscape:window-x="-9"
     inkscape:window-y="-9"
     inkscape:window-maximized="1"
     inkscape:current-layer="svg1" />
  <g
     id="SVGRepo_bgCarrier"
     stroke-width="0" />
  <g
     id="SVGRepo_tracerCarrier"
     stroke-linecap="round"
     stroke-linejoin="round" />
  <g
     id="SVGRepo_iconCarrier">
    <path
       d="M16.417 9.583A7.917 7.917 0 1 1 8.5 1.666a7.917 7.917 0 0 1 7.917 7.917zm-2.792-1.198a.396.396 0 0 0-.149-.54L8.661 5.104a.396.396 0 0 0-.393 0l-2.31 1.324v-.895a.318.318 0 0 0-.317-.317h-.968a.318.318 0 0 0-.317.317v1.813l-.872.5a.396.396 0 1 0 .393.686l4.589-2.629 4.619 2.63a.395.395 0 0 0 .54-.148zm-1.02.786L8.467 6.815l-4.11 2.356v4.465a.318.318 0 0 0 .316.317h7.615a.318.318 0 0 0 .317-.317zm-6.647.607h1.647v1.668H5.958zm5.045 1.668H9.356V9.778h1.647z"
       id="path1" />
  </g>
  <path
     style="fill:#f4eed7;stroke-width:1.03493"
     d="m 233.89392,585.8173 c -1.13842,-0.47088 -3.23415,-2.10878 -4.65718,-3.63979 l -2.58732,-2.78364 -0.2743,-96.4547 -0.27429,-96.45471 19.93794,-11.41699 c 10.96587,-6.27935 49.79108,-28.52948 86.27825,-49.44473 l 66.3403,-38.02772 36.63512,20.87465 c 20.14931,11.48106 59.33492,33.74501 87.07914,49.47545 l 50.44404,28.6008 -0.24999,95.73092 c -0.24048,92.09222 -0.32466,95.84111 -2.21479,98.62987 -4.26872,6.29822 7.29462,5.90399 -171.07564,5.83234 -89.82128,-0.0361 -164.24286,-0.45086 -165.38128,-0.92175 z M 362.74256,446.5718 V 410.86675 H 327.55498 292.3674 v 35.70505 35.70504 h 35.18758 35.18758 z m 142.82018,0 v -35.70505 h -35.18758 -35.18758 v 35.70505 35.70504 h 35.18758 35.18758 z"
     id="path2"
     transform="matrix(0.02375,0,0,0.02375,-1,0)" />
  <path
     style="fill:#f4eed7;stroke-width:1.03493"
     d="m 187.78986,358.85806 c -4.81652,-3.24585 -7.53376,-8.3144 -7.44939,-13.89559 0.12325,-8.1528 2.68378,-10.54814 25.09291,-23.47392 l 20.18111,-11.64065 0.51746,-40.82304 c 0.55889,-44.09076 0.47732,-43.48187 6.28419,-46.91207 2.39276,-1.41344 6.62245,-1.67295 27.26715,-1.67295 h 24.43507 l 3.8658,3.54067 3.86578,3.54066 0.31682,21.8151 c 0.17425,11.9983 0.48556,21.81509 0.69179,21.81509 0.20622,0 22.88383,-12.92317 50.39468,-28.71815 47.1981,-27.09816 50.31163,-28.71822 55.19438,-28.71928 4.93498,-0.001 9.80003,2.63082 105.04527,56.82746 54.92885,31.25572 102.23552,58.32675 105.12594,60.15784 6.52098,4.13106 9.18025,9.09882 8.43066,15.7492 -0.96325,8.54595 -7.15078,14.17109 -15.52348,14.11254 -5.19101,-0.0363 -8.19724,-1.62969 -75.26468,-39.89272 -109.11303,-62.25068 -124.79045,-71.14807 -126.5634,-71.82842 -1.06275,-0.40782 -23.84697,12.08068 -63.54926,34.83265 -146.38754,83.8895 -134.86989,77.51769 -140.12074,77.51769 -3.24275,0 -5.88913,-0.74917 -8.23806,-2.33211 z"
     id="path3"
     transform="matrix(0.02375,0,0,0.02375,-1,0)" />
</svg>
