<?xml version="1.0" encoding="UTF-8" standalone="no"?>
<!-- Created with Inkscape (http://www.inkscape.org/) -->

<svg
   width="81.454071mm"
   height="81.454071mm"
   viewBox="0 0 81.454071 81.454071"
   version="1.1"
   id="svg1"
   xml:space="preserve"
   xmlns:xlink="http://www.w3.org/1999/xlink"
   xmlns="http://www.w3.org/2000/svg"
   xmlns:svg="http://www.w3.org/2000/svg"><defs
     id="defs1"><linearGradient
       id="linearGradient1"><stop
         style="stop-color:#0e167f;stop-opacity:0.87450981;"
         offset="0"
         id="stop1" /><stop
         style="stop-color:#090f4c;stop-opacity:0.89728099;"
         offset="1"
         id="stop2" /></linearGradient><linearGradient
       xlink:href="#linearGradient1"
       id="linearGradient2"
       x1="85.296242"
       y1="130.63388"
       x2="137.93402"
       y2="175.20309"
       gradientUnits="userSpaceOnUse"
       gradientTransform="translate(1.5368693,1.152652)" /><clipPath
       id="clip0_901_1217"><rect
         width="32"
         height="32"
         fill="#ffffff"
         id="rect1"
         x="0"
         y="0" /></clipPath></defs><circle
     style="fill:#374bae;fill-opacity:1;stroke-width:0.289132"
     id="path2"
     cx="40.727036"
     cy="40.727036"
     r="40.727036" /><g
     id="layer1"
     transform="translate(-74.153946,-111.80725)"><circle
       style="fill:url(#linearGradient2);stroke-width:0.264583"
       id="path1"
       cx="114.88098"
       cy="152.91849"
       r="37.653297" /></g><g
     style="fill:none"
     id="g3"
     transform="matrix(1.2485026,0,0,1.2485026,20.585642,21.41165)"><g
       id="SVGRepo_bgCarrier-1"
       stroke-width="0" /><g
       id="SVGRepo_tracerCarrier-7"
       stroke-linecap="round"
       stroke-linejoin="round" /><g
       id="SVGRepo_iconCarrier-1"><g
         clip-path="url(#clip0_901_1217)"
         id="g1"><path
           d="M 5,15 V 31 M 27,15 V 31 M 1,31 H 31 M 3,1 v 11 h 6 l 7,-7 7,7 h 6 V 1 Z m 15,18 h 4 v -4 h -4 z m 0,8 h 4 v -4 h -4 z m -8,-8 h 4 v -4 h -4 z m 0,12 h 4 v -8 h -4 z"
           stroke="#f5f5f5"
           stroke-width="2"
           stroke-linecap="round"
           stroke-linejoin="round"
           id="path1-1" /></g><defs
         id="defs1-5" /></g></g></svg>
