<!DOCTYPE svg PUBLIC "-//W3C//DTD SVG 1.1//EN" "http://www.w3.org/Graphics/SVG/1.1/DTD/svg11.dtd">
<!-- Uploaded to: SVG Repo, www.svgrepo.com, Transformed by: SVG Repo Mixer Tools -->
<svg width="81px" height="81px" viewBox="0 0 15 15" fill="none" xmlns="http://www.w3.org/2000/svg" stroke="">
<g id="SVGRepo_bgCarrier" stroke-width="0"/>
<g id="SVGRepo_tracerCarrier" stroke-linecap="round" stroke-linejoin="round"/>
<g id="SVGRepo_iconCarrier"> <path d="M7 6.5V5H8V6.5C8 6.77614 7.77614 7 7.5 7C7.22386 7 7 6.77614 7 6.5Z" fill="#409bfb"/> <path fill-rule="evenodd" clip-rule="evenodd" d="M9 0H11V4H12V7.61803L9.80902 12H9V15H8V12H7V15H6V12H5.19098L3 7.61803V4H4V0H6V3H9V0ZM9 4H6V6.5C6 7.32843 6.67157 8 7.5 8C8.32843 8 9 7.32843 9 6.5V4ZM6 9V10H9V9H6Z" fill="#409bfb"/> <path d="M8 0H7V2H8V0Z" fill="#409bfb"/> </g>
</svg>