<?xml version="1.0" encoding="UTF-8" standalone="no"?>
<!-- Created with Inkscape (http://www.inkscape.org/) -->

<svg
   width="81.454071mm"
   height="81.454071mm"
   viewBox="0 0 81.454071 81.454071"
   version="1.1"
   id="svg1"
   xml:space="preserve"
   xmlns:xlink="http://www.w3.org/1999/xlink"
   xmlns="http://www.w3.org/2000/svg"
   xmlns:svg="http://www.w3.org/2000/svg"><defs
     id="defs1"><linearGradient
       id="linearGradient1"><stop
         style="stop-color:#0e167f;stop-opacity:0.87450981;"
         offset="0"
         id="stop1" /><stop
         style="stop-color:#090f4c;stop-opacity:0.89728099;"
         offset="1"
         id="stop2" /></linearGradient><linearGradient
       xlink:href="#linearGradient1"
       id="linearGradient2"
       x1="85.296242"
       y1="130.63388"
       x2="137.93402"
       y2="175.20309"
       gradientUnits="userSpaceOnUse"
       gradientTransform="translate(1.5368693,1.152652)" /></defs><circle
     style="fill:#374bae;fill-opacity:1;stroke-width:0.289132"
     id="path2"
     cx="40.727036"
     cy="40.727036"
     r="40.727036" /><g
     id="layer1"
     transform="translate(-74.153946,-111.80725)"><circle
       style="fill:url(#linearGradient2);stroke-width:0.264583"
       id="path1"
       cx="114.88098"
       cy="152.91849"
       r="37.653297" /></g><g
     style="fill:#f5f5f5"
     id="g2"
     transform="matrix(3.815835,0,0,4.0291548,12.269678,8.232939)"><g
       id="SVGRepo_bgCarrier"
       stroke-width="0" /><g
       id="SVGRepo_tracerCarrier"
       stroke-linecap="round"
       stroke-linejoin="round" /><g
       id="SVGRepo_iconCarrier"><path
         class="cls-1"
         d="M 12.28592,11.7143 6.49472,5.92372 A 2.50375,2.50375 0 0 0 6.6643,5.16932 2.14905,2.14905 0 0 0 6.56956,4.35494 2.11972,2.11972 0 0 0 6.02085,3.45063 2.32771,2.32771 0 0 0 4.26006,2.76616 H 4.21515 A 2.104,2.104 0 0 0 3.49686,2.92104 L 4.59925,4.02518 4.91846,4.34494 5.16291,4.58975 A 1.864,1.864 0 0 1 4.94343,5.4441 1.04314,1.04314 0 0 1 4.82868,5.58898 1.64822,1.64822 0 0 1 3.82609,5.92372 L 2.609,4.70468 2.16005,4.255 A 2.07386,2.07386 0 0 0 2.02536,4.79957 L 2.01036,4.9045 A 2.33671,2.33671 0 0 0 2.39443,6.42332 2.50928,2.50928 0 0 0 2.68874,6.78307 2.20549,2.20549 0 0 0 4.265,7.43257 2.45325,2.45325 0 0 0 5.16289,7.25772 l 4.79359,4.79628 1.20212,1.19909 h 0.6684 l 0.66343,-0.6645 v -0.6695 z m -6.53561,-2.806 1.3662,1.3662 -2.98759,2.9876 H 3.20558 L 2.75521,12.81172 V 11.8959 Z M 14,5.90569 12.19094,7.71475 10.89232,6.49869 9.5111,7.87992 8.1449,6.51372 9.51861,5.13249 7.89717,3.5111 8.58029,2.7379 l 2.252,0.45042 z"
         id="path1-4" /></g></g></svg>
