<?xml version="1.0" encoding="UTF-8" standalone="no"?>
<!-- Uploaded to: SVG Repo, www.svgrepo.com, Transformed by: SVG Repo Mixer Tools -->

<svg
   fill="#409bfb"
   width="800px"
   height="800px"
   viewBox="-1 0 19 19"
   class="cf-icon-svg"
   version="1.1"
   id="svg1"
   sodipodi:docname="wirelessC.svg"
   inkscape:version="1.4.2 (f4327f4, 2025-05-13)"
   xmlns:inkscape="http://www.inkscape.org/namespaces/inkscape"
   xmlns:sodipodi="http://sodipodi.sourceforge.net/DTD/sodipodi-0.dtd"
   xmlns="http://www.w3.org/2000/svg"
   xmlns:svg="http://www.w3.org/2000/svg">
  <defs
     id="defs1" />
  <sodipodi:namedview
     id="namedview1"
     pagecolor="#505050"
     bordercolor="#eeeeee"
     borderopacity="1"
     inkscape:showpageshadow="0"
     inkscape:pageopacity="0"
     inkscape:pagecheckerboard="0"
     inkscape:deskcolor="#505050"
     inkscape:zoom="0.96625"
     inkscape:cx="400"
     inkscape:cy="400"
     inkscape:window-width="1920"
     inkscape:window-height="991"
     inkscape:window-x="-9"
     inkscape:window-y="-9"
     inkscape:window-maximized="1"
     inkscape:current-layer="svg1" />
  <g
     id="SVGRepo_bgCarrier"
     stroke-width="0" />
  <g
     id="SVGRepo_tracerCarrier"
     stroke-linecap="round"
     stroke-linejoin="round" />
  <g
     id="SVGRepo_iconCarrier">
    <path
       d="M16.417 9.583A7.917 7.917 0 1 1 8.5 1.666a7.917 7.917 0 0 1 7.917 7.917zM14.3 8.2a.396.396 0 0 0 0-.56 8.196 8.196 0 0 0-11.6 0 .396.396 0 1 0 .56.56 7.405 7.405 0 0 1 10.48 0 .396.396 0 0 0 .56 0zm-1.738 1.18a5.74 5.74 0 0 0-8.123-.001.396.396 0 0 0 .56.56 4.952 4.952 0 0 1 7.003 0 .396.396 0 0 0 .56-.56zm-1.74 1.738a3.285 3.285 0 0 0-4.645 0 .396.396 0 0 0 .56.56 2.493 2.493 0 0 1 3.526 0 .396.396 0 0 0 .56-.56zM9.63 13.481a1.123 1.123 0 1 0-1.123 1.123A1.123 1.123 0 0 0 9.63 13.48z"
       id="path1" />
  </g>
  <path
     style="fill:#f4eed7;stroke-width:1.03493"
     d="m 160.41397,347.71095 c -5.63372,-2.84885 -8.05083,-6.51628 -8.59147,-13.03565 -0.35966,-4.3371 0.0133,-6.19502 1.83563,-9.14357 4.96268,-8.02978 35.10491,-33.27012 56.78227,-47.54803 118.1531,-77.82219 270.4886,-75.77225 386.92519,5.20676 19.47129,13.54184 46.49503,37.21715 49.35134,43.23636 5.75617,12.13024 -4.9577,25.72572 -18.01333,22.85822 -2.11569,-0.46468 -7.13401,-4.25535 -14.11926,-10.6652 -61.44038,-56.37929 -134.0558,-85.10195 -215.02282,-85.05119 -80.11912,0.0502 -153.81545,29.2729 -213.83634,84.79213 -13.20807,12.21743 -16.92545,13.59067 -25.31121,9.35017 z"
     id="path2"
     transform="matrix(0.02375,0,0,0.02375,-1,0)" />
  <path
     style="fill:#f4eed7;stroke-width:1.03493"
     d="m 232.5908,420.1867 c -6.74465,-4.11226 -9.57141,-13.70033 -6.04287,-20.49683 3.00219,-5.78268 23.34833,-23.51706 39.35642,-34.30438 53.99029,-36.38224 122.93009,-49.16206 187.30984,-34.72286 40.61925,9.11015 80.5463,30.14701 110.24674,58.08705 9.63893,9.06761 11.44361,11.93674 11.43817,18.1847 -0.008,8.89739 -6.76282,15.30585 -16.14097,15.31272 -5.61453,0.004 -10.38776,-2.63173 -15.93795,-8.80116 -4.44133,-4.93688 -22.11977,-18.61145 -31.80994,-24.60554 -23.88562,-14.77504 -47.21052,-23.68714 -75.58047,-28.87816 -16.28052,-2.97895 -52.25612,-3.24648 -68.03003,-0.5059 -42.47264,7.37926 -78.79891,24.91509 -108.37426,52.31565 -4.14577,3.84092 -8.68926,7.76997 -10.09664,8.73123 -3.59768,2.45727 -12.05747,2.29338 -16.33804,-0.31652 z"
     id="path3"
     transform="matrix(0.02375,0,0,0.02375,-1,0)" />
  <path
     style="fill:#f4eed7;stroke-width:1.03493"
     d="m 306.13644,493.7066 c -6.24029,-3.80495 -9.2797,-11.17071 -7.46866,-18.09972 2.13671,-8.17498 24.10367,-25.64238 43.5413,-34.62259 30.41009,-14.0495 65.84028,-16.47655 98.05109,-6.71672 25.53664,7.73756 58.04004,29.73892 61.07204,41.33931 2.64145,10.1061 -4.93814,20.11124 -15.24242,20.12017 -5.54581,0.005 -7.29761,-0.91822 -15.71463,-8.28004 C 450.23352,469.83044 425.94014,460.54334 400,460.54334 c -25.94014,0 -50.23352,9.2871 -70.37516,26.90367 -3.69987,3.23604 -7.74429,6.42375 -8.98759,7.08381 -3.49689,1.85646 -10.78364,1.44228 -14.50081,-0.82422 z"
     id="path4"
     transform="matrix(0.02375,0,0,0.02375,-1,0)" />
  <path
     style="fill:#f4eed7;stroke-width:1.03493"
     d="m 392.7555,613.67705 c -10.97684,-1.94977 -18.80432,-6.37344 -27.23927,-15.39419 -24.77738,-26.49812 -8.69142,-70.71584 27.92561,-76.76302 19.86461,-3.28057 40.35938,7.91374 49.41836,26.99245 3.01772,6.35549 3.19413,7.41296 3.19413,19.14618 0,12.03612 -0.10917,12.64258 -3.53971,19.66365 -6.5696,13.44558 -18.57764,22.86439 -33.06461,25.93506 -7.52991,1.59604 -9.75747,1.65206 -16.69451,0.41987 z"
     id="path5"
     transform="matrix(0.02375,0,0,0.02375,-1,0)" />
</svg>
